<svg xmlns="http://www.w3.org/2000/svg" width="512" height="512">
<path style="fill:none; stroke:none;" d="M0 0L0 139L1 139C4.60837 123.809 16.8724 111.636 32 107.761C43.3004 104.866 57.3677 107 69 107L145 107L178 107C182.551 107 188.819 105.914 192.996 108.028C204.156 113.675 214.266 131.461 222.246 141C225.267 144.611 228.661 150.556 233.17 152.397C239.065 154.803 248.686 153 255 153L305 153L395 153C411.097 153 427.228 150.865 441 160.927C463.252 177.186 458 205.929 458 230L458 359C458 379.888 460.304 402.269 457.816 423C452.415 467.99 395.703 459 364 459L89 459C58.0482 459 9.52023 466.735 1 426L0 426L0 512L512 512L512 372L511 372C508.236 390.437 492.138 401.675 475 405L475 237C475 212.172 479.91 182.453 464.791 161C446.378 134.874 419.544 136 391 136C342.819 136 294.131 138.063 246 135.981C238.22 135.644 234.159 128.425 229.576 123C220.916 112.751 210.517 94.6962 197 90.7894C183.457 86.8751 165.071 90 151 90L54 90C57.0701 74.223 67.0641 60.2088 83 55.2207C95.577 51.2839 110 53 123 53L196 53L231 53C235.893 53 242.498 51.8792 246.985 54.179C258.109 59.8806 268.11 77.4619 276.08 87C279.272 90.8192 282.944 97.3461 288.039 98.6821C298.086 101.316 311.612 99 322 99L396 99L450 99C460.54 99 471.728 97.9206 482 100.76C495.99 104.627 508.822 117.472 511 132L512 132L512 0L0 0z"/>
<path style="fill:#ffffff; stroke:none;" d="M54 90L152 90C165.483 90 184.208 86.6605 197 91.1088C210.39 95.765 220.764 113.571 229.576 124C233.554 128.709 237.293 135.357 244 135.941C291.201 140.052 340.598 136 388 136C417.888 136 445.5 134.629 464.791 162C479.91 183.453 475 213.172 475 238L475 405C493.263 402.642 508.97 389.936 511.7 371C514.473 351.76 512 330.445 512 311L512 191C512 169.582 517.885 138.045 506.648 119C495.622 100.311 476.359 99 457 99L378 99L318 99C309.073 99 297.667 100.906 289.015 98.6821C284.115 97.4229 280.807 91.6644 277.753 88C269.976 78.6676 258.409 58.2159 246.985 53.7423C234.121 48.7045 211.821 53 198 53L124 53C110.631 53 96.0205 51.3417 83 54.9267C66.8417 59.3756 56.0853 73.8661 54 90M32 107.518C-1.16759 114.594 0 146.396 0 173L0 369C0 392.549 -6.82008 427.063 10.6157 445.714C22.9079 458.862 39.3025 459 56 459L114 459L326 459L391 459C403.113 459 416.189 460.409 428 457.243C457.307 449.387 458 422.975 458 398L458 232C458 209.903 463.525 181.123 445.91 164.174C429.596 148.477 404.677 153 384 153C335.488 153 286.461 155.088 238.001 152.981C231.227 152.686 227.912 146.783 223.92 142C216.214 132.768 204.367 111.846 192.996 107.603C180.495 102.939 159.361 107 146 107L70 107C57.9287 107 43.8198 104.996 32 107.518z"/>
</svg>