<?xml version="1.0" standalone="no"?>
<!DOCTYPE svg PUBLIC "-//W3C//DTD SVG 20010904//EN"
 "http://www.w3.org/TR/2001/REC-SVG-20010904/DTD/svg10.dtd">
<svg version="1.0" xmlns="http://www.w3.org/2000/svg"
 width="512.000000pt" height="512.000000pt" viewBox="0 0 512.000000 512.000000"
 preserveAspectRatio="xMidYMid meet">
<metadata>
Created by potrace 1.16, written by Peter Selinger 2001-2019
</metadata>
<g transform="translate(0.000000,512.000000) scale(0.100000,-0.100000)"
fill="#ffffff" stroke="none">
<path d="M2310 5114 c-334 -40 -608 -118 -885 -254 -249 -123 -448 -264 -654
-465 -397 -387 -646 -863 -743 -1419 -29 -172 -37 -551 -14 -726 43 -322 122
-581 263 -858 118 -233 256 -424 448 -621 414 -425 923 -678 1525 -757 174
-22 553 -15 726 15 262 45 485 117 719 232 248 122 448 263 654 464 404 393
654 877 748 1450 26 158 26 612 0 770 -73 441 -233 818 -498 1171 -95 128
-357 389 -481 482 -355 265 -735 428 -1163 498 -96 15 -555 28 -645 18z m560
-449 c804 -121 1470 -690 1719 -1467 216 -677 69 -1430 -390 -1990 -303 -370
-747 -636 -1222 -733 -585 -119 -1199 19 -1685 379 -133 99 -355 321 -445 447
-334 463 -473 1018 -392 1565 144 967 918 1706 1900 1813 119 13 384 6 515
-14z"/>
<path d="M2498 4051 c-53 -17 -98 -53 -126 -99 -39 -67 -39 -157 1 -224 40
-69 102 -103 187 -103 71 1 108 15 154 61 46 46 60 83 61 154 0 83 -34 147
-100 185 -48 29 -131 40 -177 26z"/>
<path d="M2465 3183 c-51 -26 -94 -74 -110 -123 -14 -41 -15 -157 -13 -946 l3
-899 28 -47 c40 -69 102 -103 187 -103 71 1 108 15 154 61 65 66 61 -1 64 984
2 647 0 906 -9 936 -14 53 -60 109 -110 134 -48 25 -150 26 -194 3z"/>
</g>
</svg>
