<svg xmlns="http://www.w3.org/2000/svg" width="512" height="512">
<path style="fill:none; stroke:none;" d="M0 0L0 263L1 263C7.73739 240.317 39.0454 239.162 48.9498 260C53.702 269.998 51 285.172 51 296L51 358C51 377.19 51.0438 396.143 63.5177 412C84.6829 438.905 117.599 434 148 434L347 434C373.875 434 410.38 440.592 434 425.301C460.575 408.097 461 380.273 461 352L461 295C461 284.608 458.636 270.779 462.613 261C471.562 238.998 504.196 240.093 511 263L512 263L512 0L0 0z"/>
<path style="fill:#ffffff; stroke:none;" d="M189 188L189 304C189 319.239 184.943 341.267 192.324 355C197.323 364.301 205.876 368.47 216 369.714C240.534 372.728 269.329 371.609 294 369.91C303.831 369.233 313.106 365.679 318.532 356.996C327.063 343.344 323 321.527 323 306L323 188L365 188C373.222 188 382.237 188.295 388.907 182.61C398.83 174.15 397.496 159.246 389.696 150C369.591 126.169 345.051 105.051 323 83L282 42C274.652 34.6523 267.241 26.0293 256 26.0293C244.759 26.0293 237.348 34.6523 230 42L189 83C166.949 105.051 142.409 126.169 122.304 150C114.493 159.259 113.236 174.081 123.104 182.61C129.449 188.094 138.119 188 146 188L189 188M25 244.711C14.3191 244.888 3.87887 251.311 0.789352 262C-4.50251 280.309 0 305.937 0 325C0 348.707 -2.9431 374.654 1.45988 398C9.34468 439.809 43.0241 475.106 85 483.551C114.823 489.551 147.661 486 178 486L346 486C386.026 486 427.617 491.092 463 468.564C519.683 432.474 512 369.203 512 311C512 291.846 519.139 258.37 499 247.417C484.115 239.323 463.057 248.727 461.174 266C457.946 295.598 461 327.212 461 357C461 384.883 457.443 410.868 431 426.546C406.648 440.985 368.273 434 341 434L175 434C149.779 434 118.335 439.013 94 431.961C37.7999 415.674 51 344.643 51 300C51 279.03 56.0138 244.196 25 244.711z"/>
</svg>