<?xml version="1.0" standalone="yes"?>
<svg xmlns="http://www.w3.org/2000/svg" width="512" height="512">
<path style="fill:none; stroke:none;" d="M0 0L0 512L512 512L512 0L0 0z"/>
<path style="fill:#5fdd61; stroke:none;" d="M241 8.42438C183.61 15.9596 132.945 32.424 89 72.1698C66.0018 92.9705 46.0831 118.915 32.7809 147C-21.0234 260.598 17.3916 397.056 123 465.655C144.29 479.484 168.479 489.676 193 496.116C224.541 504.399 257.759 505.958 290 501.718C407.237 486.302 498.804 384.76 503.961 267C509.215 147.028 424.186 36.6338 306 13C285.336 8.8678 262.05 5.66055 241 8.42438z"/>
<path style="fill:#9eed9f; stroke:none;" d="M150 31L151 32L150 31M140 36L141 37L140 36M138 37L139 38L138 37z"/>
<path style="fill:#01ff01; stroke:none;" d="M118 49L119 50L118 49z"/>
<path style="fill:#9eed9f; stroke:none;" d="M393 49L394 50L393 49z"/>
<path style="fill:#01ff01; stroke:none;" d="M108 56L109 57L108 56M403 56L404 57L403 56M99 63L100 64L99 63M412 63L413 64L412 63M92 69L93 70L92 69z"/>
<path style="fill:#9eed9f; stroke:none;" d="M419 69L420 70L419 69M69 92L70 93L69 92M442 92L443 93L442 92z"/>
<path style="fill:#01ff01; stroke:none;" d="M63 99L64 100L63 99M448 99L449 100L448 99M56 108L57 109L56 108M455 108L456 109L455 108M49 118L50 119L49 118M462 118L463 119L462 118z"/>
<path style="fill:#9eed9f; stroke:none;" d="M37 138L38 139L37 138M474 138L475 139L474 138M326 145L326 146L329 146L326 145z"/>
<path style="fill:#fefffe; stroke:none;" d="M223 298C212.424 290.55 203.149 280.133 194 271C188.786 265.795 183.13 259.661 175 261.537C167.977 263.158 163.192 270.065 158 274.576C152.233 279.586 143.705 286.299 145.547 295C147.597 304.68 159.36 312.359 166 319C182.946 335.945 212.939 379.808 241 362.786C256.922 353.128 267.211 328.183 277.333 313C297.044 283.433 316.289 253.567 336 224C345.415 209.877 359.627 193.934 365.44 178C370.819 163.257 340.123 142.343 327 145.958C314.208 149.481 304.912 172.632 298 183C288.254 197.619 278.745 212.383 269 227C253.755 249.868 234.749 273.159 223 298z"/>
<path style="fill:#9eed9f; stroke:none;" d="M332.667 145.333L333.333 145.667L332.667 145.333M324 146L325 147L324 146M336 146L337 147L336 146M322 147L323 148L322 147M338 147L339 148L338 147M321 148L322 149L321 148M339 148L340 149L339 148M320 149L321 150L320 149M341 149L342 150L341 149M319 150L320 151L319 150M318 151L319 152L318 151M344 151L345 152L344 151M346 152L347 153L346 152M317 153L318 154L317 153M347 153L348 154L347 153M316 154L317 155L316 154M349 154L350 155L349 154M315 156L316 157L315 156M352 156L353 157L352 156M354 157L355 158L354 157M355 158L356 159L355 158M313 159L314 160L313 159M357 159L358 160L357 159M360 161L361 162L360 161M311 162L312 163L311 162M361 162L362 163L361 162M309 165L310 166L309 165M364 165L365 166L364 165M365 167L366 168L365 167M307 168L308 169L307 168M366.333 169.667L366.667 170.333L366.333 169.667M305 171L306 172L305 171M304 173L305 174L304 173M303 174L304 175L303 174M366 174L366 177L367 177L366 174M302 176L303 177L302 176M301 177L302 178L301 177M365 178L366 179L365 178M300 179L301 180L300 179M299 180L300 181L299 180M364 180L365 181L364 180M298 182L299 183L298 182M297 183L298 184L297 183M362 183L363 184L362 183M296 185L297 186L296 185M295 186L296 187L295 186M360 186L361 187L360 186M294 188L295 189L294 188M293 189L294 190L293 189M358 189L359 190L358 189M292 191L293 192L292 191M291 192L292 193L291 192M356 192L357 193L356 192M290 194L291 195L290 194M355 194L356 195L355 194M354 195L355 196L354 195M288 197L289 198L288 197M353 197L354 198L353 197M352 198L353 199L352 198M286 200L287 201L286 200M351 200L352 201L351 200M350 201L351 202L350 201M284 203L285 204L284 203M349 203L350 204L349 203M348 204L349 205L348 204M282 206L283 207L282 206M347 206L348 207L347 206M346 207L347 208L346 207M280 209L281 210L280 209M345 209L346 210L345 209M344 210L345 211L344 210M279 211L280 212L279 211M278 212L279 213L278 212M343 212L344 213L343 212M277 214L278 215L277 214M276 215L277 216L276 215M341 215L342 216L341 215M275 217L276 218L275 217M274 218L275 219L274 218M339 218L340 219L339 218M273 220L274 221L273 220M272 221L273 222L272 221M337 221L338 222L337 221M271 223L272 224L271 223M270 224L271 225L270 224M335 224L336 225L335 224M269 226L270 227L269 226M268 227L269 228L268 227M333 227L334 228L333 227M267 229L268 230L267 229M266 230L267 231L266 230M331 230L332 231L331 230M265 232L266 233L265 232M330 232L331 233L330 232M329 233L330 234L329 233M263 235L264 236L263 235M328 235L329 236L328 235M327 236L328 237L327 236M261 238L262 239L261 238M326 238L327 239L326 238M325 239L326 240L325 239M259 241L260 242L259 241M324 241L325 242L324 241M323 242L324 243L323 242M257 244L258 245L257 244M322 244L323 245L322 244M321 245L322 246L321 245M255 247L256 248L255 247M320 247L321 248L320 247M319 248L320 249L319 248M254 249L255 250L254 249M253 250L254 251L253 250M318 250L319 251L318 250M252 252L253 253L252 252M251 253L252 254L251 253M316 253L317 254L316 253M250 255L251 256L250 255M249 256L250 257L249 256M314 256L315 257L314 256M248 258L249 259L248 258M247 259L248 260L247 259M312 259L313 260L312 259M173.667 261.333L174.333 261.667L173.667 261.333M181.667 261.333L182.333 261.667L181.667 261.333M246 261L247 262L246 261M171 262L172 263L171 262M184 262L185 263L184 262M245 262L246 263L245 262M310 262L311 263L310 262M169 263L170 264L169 263M168 264L169 265L168 264M187 264L188 265L187 264M244 264L245 265L244 264M167 265L168 266L167 265M188 265L189 266L188 265M243 265L244 266L243 265M308 265L309 266L308 265M166 266L167 267L166 266M189 266L190 267L189 266M165 267L166 268L165 267M190 267L191 268L190 267M242 267L243 268L242 267M307 267L308 268L307 267M164 268L165 269L164 268M191 268L192 269L191 268M306 268L307 269L306 268M163 269L164 270L163 269M192 269L193 270L192 269M162 270L163 271L162 270M193 270L194 271L193 270M240 270L241 271L240 270M305 270L306 271L305 270M161 271L162 272L161 271M194 271L195 272L194 271M304 271L305 272L304 271M160 272L161 273L160 272M195 272L196 273L195 272M159 273L160 274L159 273M196 273L197 274L196 273M238 273L239 274L238 273M303 273L304 274L303 273M158 274L159 275L158 274M197 274L198 275L197 274M302 274L303 275L302 274M198 275L199 276L198 275M199 276L200 277L199 276M236 276L237 277L236 276M301 276L302 277L301 276M200 277L201 278L200 277M300 277L301 278L300 277M201 278L202 279L201 278M202 279L203 280L202 279M234 279L235 280L234 279M299 279L300 280L299 279M203 280L204 281L203 280M298 280L299 281L298 280M204 281L205 282L204 281M205 282L206 283L205 282M232 282L233 283L232 282M297 282L298 283L297 282M206 283L207 284L206 283M296 283L297 284L296 283M207 284L208 285L207 284M147 285L148 286L147 285M208 285L209 286L208 285M230 285L231 286L230 285M295 285L296 286L295 285M146 286L147 287L146 286M228 288L229 289L228 288M293 288L294 289L293 288M145 289L146 290L145 289M227 290L228 291L227 290M226 291L227 292L226 291M291 291L292 292L291 291M225 293L226 294L225 293M224 294L225 295L224 294M289 294L290 295L289 294M145.333 295.667L145.667 296.333L145.333 295.667M223 296L224 297L223 296M222 297L223 298L222 297M287 297L288 298L287 297M146 298L147 299L146 298M147 300L148 301L147 300M285 300L286 301L285 300M148 301L149 302L148 301M283 303L284 304L283 303M152 305L153 306L152 305M282 305L283 306L282 305M153 306L154 307L153 306M281 306L282 307L281 306M154 307L155 308L154 307M155 308L156 309L155 308M280 308L281 309L280 308M156 309L157 310L156 309M279 309L280 310L279 309M157 310L158 311L157 310M158 311L159 312L158 311M278 311L279 312L278 311M159 312L160 313L159 312M277 312L278 313L277 312M160 313L161 314L160 313M161 314L162 315L161 314M276 314L277 315L276 314M162 315L163 316L162 315M275 315L276 316L275 315M163 316L164 317L163 316M164 317L165 318L164 317M274 317L275 318L274 317M165 318L166 319L165 318M273 318L274 319L273 318M166 319L167 320L166 319M167 320L168 321L167 320M272 320L273 321L272 320M168 321L169 322L168 321M271 321L272 322L271 321M169 322L170 323L169 322M170 323L171 324L170 323M270 323L271 324L270 323M171 324L172 325L171 324M172 325L173 326L172 325M173 326L174 327L173 326M268 326L269 327L268 326M174 327L175 328L174 327M175 328L176 329L175 328M176 329L177 330L176 329M266 329L267 330L266 329M177 330L178 331L177 330M264 332L265 333L264 332M262 335L263 336L262 335M260 338L261 339L260 338M259 340L260 341L259 340M258 341L259 342L258 341M23 342L24 343L23 342M488 342L489 343L488 342M257 343L258 344L257 343M256 344L257 345L256 344M255 346L256 347L255 346M195 347L196 348L195 347M254 347L255 348L254 347M196 348L197 349L196 348M197 349L198 350L197 349M253 349L254 350L253 349M198 350L199 351L198 350M252 350L253 351L252 350M199 351L200 352L199 351M200 352L201 353L200 352M251 352L252 353L251 352M201 353L202 354L201 353M250 353L251 354L250 353M202 354L203 355L202 354M203 355L204 356L203 355M249 355L250 356L249 355M204 356L205 357L204 356M248 356L249 357L248 356M205 357L206 358L205 357M247 357L248 358L247 357M206 358L207 359L206 358M246 358L247 359L246 358M207 359L208 360L207 359M245 359L246 360L245 359M208 360L209 361L208 360M244 360L245 361L244 360M243 361L244 362L243 361M480 361L481 362L480 361M211 362L212 363L211 362M241 362L242 363L241 362M213 363L214 364L213 363M240 363L241 364L240 363M215 364L216 365L215 364M237.667 364.333L238.333 364.667L237.667 364.333M217.667 365.333L218.333 365.667L217.667 365.333M235 365L236 366L235 365M220 366L220 367L223 367L220 366M230 366L230 367L233 367L230 366M475 371L476 372L475 371M37 373L38 374L37 373z"/>
<path style="fill:#01ff01; stroke:none;" d="M474 373L475 374L474 373M49 393L50 394L49 393M462 393L463 394L462 393M56 403L57 404L56 403M63 412L64 413L63 412z"/>
<path style="fill:#9eed9f; stroke:none;" d="M69 419L70 420L69 419M442 419L443 420L442 419z"/>
<path style="fill:#01ff01; stroke:none;" d="M92 442L93 443L92 442z"/>
<path style="fill:#9eed9f; stroke:none;" d="M419 442L420 443L419 442z"/>
<path style="fill:#01ff01; stroke:none;" d="M118 462L119 463L118 462M393 462L394 463L393 462z"/>
<path style="fill:#9eed9f; stroke:none;" d="M131 470L132 471L131 470z"/>
<path style="fill:#01ff01; stroke:none;" d="M138 474L139 475L138 474z"/>
<path style="fill:#9eed9f; stroke:none;" d="M373 474L374 475L373 474M140 475L141 476L140 475M142 476L143 477L142 476M150 480L151 481L150 480M164 486L165 487L164 486M169 488L170 489L169 488M342 488L343 489L342 488z"/>
</svg>
